<svg id="eAZ3xo8DzkT1" xmlns="http://www.w3.org/2000/svg" xmlns:xlink="http://www.w3.org/1999/xlink" viewBox="0 0 24 24" shape-rendering="geometricPrecision" text-rendering="geometricPrecision" project-id="6c5f569597bc402abbd1b5431e1eabec" export-id="a52d6f22ac974566899eb378b69e7dfe" cached="false"><defs><linearGradient id="eAZ3xo8DzkT3-fill" x1="0.840999" y1="0.134323" x2="0.159001" y2="0.865677" spreadMethod="pad" gradientUnits="objectBoundingBox" gradientTransform="translate(0 0)"><stop id="eAZ3xo8DzkT3-fill-0" offset="0%" stop-color="#f55"/><stop id="eAZ3xo8DzkT3-fill-1" offset="100%" stop-color="#83e3f0"/></linearGradient><linearGradient id="eAZ3xo8DzkT7-stroke" x1="0.840999" y1="0.134323" x2="0.159001" y2="0.865677" spreadMethod="pad" gradientUnits="objectBoundingBox" gradientTransform="translate(0 0)"><stop id="eAZ3xo8DzkT7-stroke-0" offset="0%" stop-color="#f55"/><stop id="eAZ3xo8DzkT7-stroke-1" offset="100%" stop-color="#83e3f0"/></linearGradient></defs><g transform="matrix(.864765 0 0 0.897068 1.56282 1.642283)"><path d="M11.073144,10.852738c-.867357-2.267196-1.762522-1.069735-2.169097.183915-.199345.614669-.383851,1.20645-.916113,1.241256C6.806676,12.3116,6.274471,9.443102,6.806676,7.8146C6.852904,5.462463,3,9.098334,3,13.1112c0,7.111094,5.28889,8.8889,7.9333,8.8889.1538,0,.3155-.0046.4838-.0143.4459-.0562,0,.0992,1.4153-.1845C15.9583,21.1747,20,18.926,20,13.1112c0-5.2916-4.643194-8.711029-7.428394-10.330109-1.173089-.420957-1.808217-.042268-1.498461.70701c0,0,2.394545,4.326499,1.759255,6.834427-.064609.994823-1.402701,1.426303-1.759255.53021Z" transform="translate(.569384-.731719)" fill="url(#eAZ3xo8DzkT3-fill)"/></g><path d="M10.074685,7.287198c.069377,4.260718,2.712191,3.801065,2.996921,0" transform="matrix(1.014511 0 0 1.01712-.152304 0.233879)" fill="none"/><path d="" transform="matrix(1.014511 0 0 1.01712-.118721 0.185505)" fill="none" stroke="#3f5787" stroke-width="0.5"/><path d="" fill="none" stroke="#3f5787" stroke-width="0.5"/><path d="M2.464013,6.134044C1.450225,7.7364,0.842559,9.700769,0.840395,12.002913c-.000184.19562,0-.046769,0,.000001c0,6.693128,5.187215,11.189521,11.159968,11.189521c6.944565,0,11.159965-5.59476,11.159965-11.189521c0-.234982-.004627-.464103-.013882-.687365-.736359-8.555934-9.016462-12.02955-14.779523-9.85464" transform="translate(-.000327 0.016859)" fill="none" stroke="url(#eAZ3xo8DzkT7-stroke)"/></svg>
